<?xml version="1.0" standalone="no"?>
<!DOCTYPE svg PUBLIC "-//W3C//DTD SVG 20010904//EN"
 "http://www.w3.org/TR/2001/REC-SVG-20010904/DTD/svg10.dtd">
<svg version="1.0" xmlns="http://www.w3.org/2000/svg"
 width="512.000000pt" height="512.000000pt" viewBox="0 0 512.000000 512.000000"
 preserveAspectRatio="xMidYMid meet">
<metadata>
Created by potrace 1.16, written by Peter Selinger 2001-2019
</metadata>
<g transform="translate(0.000000,512.000000) scale(0.100000,-0.100000)"
fill="#000000" stroke="none">
<path d="M2360 4984 c-668 -61 -1160 -358 -1390 -839 -72 -152 -110 -293 -130
-490 -62 -595 323 -1583 1108 -2845 196 -314 387 -592 429 -621 109 -76 246
-78 356 -6 39 26 73 70 186 237 640 951 1127 1921 1291 2570 54 216 72 340 73
515 1 229 -27 383 -103 572 -120 295 -366 556 -668 707 -155 78 -392 150 -592
181 -101 15 -464 28 -560 19z m346 -605 c456 -63 831 -396 944 -839 68 -266
40 -524 -85 -775 -65 -132 -126 -215 -235 -318 -136 -131 -303 -225 -488 -275
-88 -23 -114 -26 -282 -26 -172 -1 -192 1 -284 27 -245 68 -466 217 -617 416
-65 86 -153 264 -183 373 -89 311 -34 649 150 925 234 352 667 550 1080 492z"/>
<path d="M2425 4147 c-62 -21 -104 -45 -153 -90 -92 -86 -127 -175 -119 -305
5 -81 4 -87 -18 -104 -75 -59 -12 -228 84 -228 14 0 21 -9 26 -32 12 -52 44
-110 87 -154 36 -38 39 -45 36 -88 l-3 -48 -170 -62 c-307 -113 -353 -138
-380 -211 -18 -45 -18 -45 7 -83 105 -158 308 -298 513 -353 115 -32 335 -32
450 0 205 55 408 195 513 353 25 38 25 38 7 83 -9 26 -30 55 -48 69 -39 29
-158 79 -353 150 l-149 54 -3 48 c-3 43 0 50 36 88 43 44 75 102 87 154 5 23
12 32 26 32 68 0 127 85 114 166 -4 27 -14 50 -28 61 -20 17 -22 27 -22 128 0
102 -2 114 -29 168 -37 72 -118 150 -193 185 -50 23 -73 27 -168 29 -71 2
-124 -2 -150 -10z"/>
</g>
</svg>
